<?xml version="1.0" encoding="UTF-8"?>
<!-- Generator: Adobe Illustrator 23.0.4, SVG Export Plug-In . SVG Version: 6.00 Build 0)  -->
<svg id="Layer_1" enable-background="new 0 0 126.9 115.1" version="1.1" viewBox="0 0 126.9 115.1" xml:space="preserve" xmlns="http://www.w3.org/2000/svg" xmlns:xlink="http://www.w3.org/1999/xlink">
<style type="text/css">
	.st0{fill:#FFFFFF;}
	.st1{clip-path:url(#SVGID_2_);}
	.st2{fill:#DAE1E5;}
	.st3{fill:#F26E46;}
	.st4{fill:#F4896A;}
	.st5{fill:#EC5735;}
</style>

	<path class="st0" d="m111.1 57.3c0.2 26.3-20.9 47.8-47.2 48s-47.8-20.9-48-47.2 20.9-47.8 47.2-48 47.8 20.9 48 47.2"/>
	
		<defs>
			<path id="SVGID_1_" d="m111.1 57.3c0.2 26.3-20.9 47.8-47.2 48s-47.8-20.9-48-47.2 20.9-47.8 47.2-48 47.8 20.9 48 47.2"/>
		</defs>
		<clipPath id="SVGID_2_">
			<use xlink:href="#SVGID_1_"/>
		</clipPath>
		<g class="st1">
			<path class="st2" d="m69.6 9.9h0.1-0.1m-0.8-0.1m-0.2-0.1h0.2-0.1-0.1m-0.2 0.1h-0.3 0.3m28.3 13.4-0.2-0.2c-0.8-0.7-1.4-1.3-2.1-1.9l-0.3-0.3c0.9 0.7 1.4 1.2 2.4 2.1l0.2 0.3c0.1 0.1 0.1 0 0 0m12.1 18.2m-0.4-1c0.1 0.3 0.3 0.7 0.4 1v-0.1c0-0.1 0-0.1-0.1-0.2v-0.1-0.1c-0.1-0.1-0.2-0.3-0.3-0.5m-2.6-5.5c-0.7-1.2-1-1.8-1.6-2.7 0.5 0.8 1 1.5 1.4 2.3 0.1 0.2 0.1 0.3 0.2 0.4m-4.1-6.2m-5-5.5 0.3 0.3-0.3-0.3c0.1 0 0 0 0 0m5.8 61.7c-0.1 0.1-0.1 0.2-0.2 0.3 0.7-0.9 1.3-1.7 1.8-2.7-0.3 0.4-0.8 1.3-1.6 2.4m3.6-5.9c0.6-1 1.1-2.1 1.6-3.2l-0.1 0.1c-0.4 1.1-0.9 2.1-1.5 3.1m3.2-7.4v0c0.3-1 0.6-2 0.9-3-0.3 1.1-0.6 2.1-0.9 3m2.3-14.4v0 0m0-0.2m-0.6-6.8c0.1 0.8 0.2 1.4 0.3 2.3-0.1-0.8-0.2-1.6-0.3-2.3m-53.1-26.3v-0.2-0.4l-0.4-0.1-0.5 0.3 0.1 0.6h0.5l0.3-0.2m-1.6-0.7v-0.2c-0.1 0-0.1 0.1-0.2 0.1h-0.2c-0.1 0-0.3 0.1-0.4 0.2l-0.2 0.1 0.2 0.2h0.2c0.1 0 0.3-0.1 0.4-0.2 0.1 0 0.1 0 0.2-0.2m3.3-8 0.4-0.1-0.4-0.3h-0.6-0.4v0.3 0.3h0.7l0.3-0.2m8.3-5.5c-0.1 0-0.3 0-0.5-0.1h-0.1 0.1l0.6 0.1 0.5 0.1h0.3 0.3 0.3 0.3l-1-0.2h0.1-0.3-0.3 0.1l-0.4 0.1m1.2 0.1h-0.3l-0.5-0.1h-0.1c0.2 0 0.4 0 0.6 0.1h0.3-0.2l0.5 0.1h-0.2c0.2 0 0.4 0.1 0.6 0.1-0.1 0-0.3 0-0.4-0.1h-0.1c0.1 0 0.3 0 0.4 0.1l0.3 0.1h0.3 0.2c-0.1 0-0.4-0.1-0.8-0.1h-0.2l-0.4-0.1m2 0.5c-0.1 0-0.3-0.1-0.4-0.1h0.1l-0.7-0.1c0.2 0 0.4 0.1 0.6 0.1h-0.1l-0.4-0.1h-0.1-0.2 0.2-0.1c0.6 0.1 0.7 0.1 0.9 0.2-0.2 0-0.4-0.1-0.7-0.1h-0.2c0.2 0 0.6 0.1 0.8 0.1h0.3-0.1c0.1 0 0.2 0 0.4 0.1l0.4 0.1c0.1 0 0.2 0 0.3 0.1 0.1 0 0.2 0.1 0.3 0.1-0.1-0.1-0.3 0-0.4-0.1 0-0.2 0-0.2-0.9-0.3m0.8 0.2m3.2 0.6h-0.2l-0.3-0.1-0.5-0.1c-0.4-0.1-0.7-0.2-1.1-0.3l-0.6-0.1h0.1-0.2-0.3c-0.4 0.1-0.7-0.1-1-0.2 0.2 0 0.3 0.1 0.5 0.1h0.2c0.3 0 0.5 0.1 0.8 0.2-0.2 0-0.3 0-0.5-0.1h-0.2-0.2-0.2c-0.1 0-0.2 0-0.3-0.1l0.5 0.1-0.3-0.1-0.4-0.1 0.3 0.1c0.7 0.3 1.4 0.3 2.1 0.5-0.3 0-0.5-0.1-0.8-0.2 0.1 0 1 0.3 1.1 0.3-0.2-0.1-0.3-0.1-0.5-0.1 0.2 0 0.4 0.1 0.6 0.1-0.1 0-0.5-0.1-0.7-0.2l-0.3-0.1c0.2 0 0.2 0 0.6 0.1l-0.2-0.1h0.1c0.1 0 0.3 0.1 0.4 0.1h0.1-0.2 0.1l0.6 0.2h-0.1 0.1l-0.3-0.1c0.1 0 0.6 0.2 0.6 0.2h-0.1c0.6 0.2 1.1 0.4 1.7 0.5l-1.4-0.5c-0.3-0.1-0.5-0.2-0.8-0.2-0.3-0.1-0.7-0.2-1-0.3 1.1 0.3 1.1 0.3 2 0.5-0.1-0.1-0.3-0.1-0.4-0.1 0.2 0 0.4 0.1 0.6 0.2 0.3 0.1 0.2 0.1 0-0.1m21.7 12.5-0.2-0.2 0.2 0.2m-11.3-8.4-0.6-0.3h0.1l0.5 0.3m4 2.2-2.7-1.6-0.3-0.2 0.3 0.2-0.4-0.2-0.1-0.1-0.4-0.2 0.2 0.1c-0.1 0-0.2-0.1-0.3-0.1l-0.2-0.1-0.3-0.2-0.6-0.3 0.4 0.2-0.3-0.1-0.4-0.2 0.6 0.3 0.2 0.2-1-0.5c0.2 0.1 0.7 0.4 0.7 0.4-0.1-0.1-0.3-0.1-0.4-0.2h-0.1c0.2 0.2 0.5 0.3 0.8 0.4 0.1 0.1 0.2 0.1 0.3 0.2-0.1 0-0.1 0-0.2-0.1 0.6 0.3 0.6 0.3 0.7 0.4-0.3-0.2-0.3-0.2-1-0.4 0.1 0.1 0.2 0.1 0.3 0.2l0.9 0.6c-0.1 0-0.1 0-0.5-0.2 0.1 0.1 0.5 0.3 0.5 0.3 0.1 0.1 0.3 0.1 0.4 0.2l0.2 0.2c-0.3-0.1-0.6-0.3-0.8-0.4 0.2 0.1 0.3 0.2 0.4 0.3h0.1-0.1c0.1 0.1 0.3 0.2 0.4 0.3l0.2 0.2c0.1 0.1 0.2 0.1 0.3 0.2l0.1 0.1h0.1c-0.2-0.2-0.2-0.2-0.2-0.3v-0.1-0.1-0.1c0.1 0 0.2 0.1 0.3 0.2 0.1 0.2 2.5 2.1 2.6 2.1l-0.2-0.1c0.2 0.2 0.3 0.4 0.5 0.6h0.1l1 1h-0.1-0.1l0.2 0.2c0.1 0.1 0.2 0.1 0.3 0.2 0.2 0.3 0.3 0.5 0.5 0.7h-0.1c0.2 0.5 0.7 0.7 1 1.1l0.3 0.3h0.1c0.6-0.1 0.4 0.8 1 0.8l0.3 0.3c0.2 0 0.4 0 0.6-0.1-0.1-0.1-0.2-0.2-0.2-0.3h0.1v-0.1l-0.2-0.2s0.2 0 0.7 0.5c0.2-0.1 0.5-0.1 0.7-0.2-0.2-0.3-0.4-0.5-0.6-0.8h-0.3c-0.3-0.3-0.7-0.4-1-0.7s-0.7-0.6-1-0.9c-1.1-1.1-2.2-2.1-3.5-3 0.1 0.1 0.3 0.2 0.4 0.3-0.1-0.1-0.1-0.1-0.2-0.1 0.2 0.1 0.3 0.2 0.4 0.3l0.4 0.3c0.3 0.2 0.6 0.5 0.9 0.7h-0.1c0.3 0.3 0.3 0.3 2.2 1.9l0.1 0.1c0.2 0.2 0.6 0.4 1.1 0.8-0.1-0.1-0.1-0.2-0.2-0.3h0.1c0-0.1-0.1-0.2-0.2-0.2v-0.1-0.1l-0.1-0.1 0.3 0.2 0.9 0.9c-0.1 0-0.2-0.1-0.2-0.2 0 0.1 0.1 0.2 0.1 0.2h-0.1c0.1 0.2 0.3 0.3 0.4 0.4 0.1-0.1 0.1-0.2 0-0.3l-0.3-0.2c-3.7-3.2-3.8-3.3-5.9-4.8l-0.8-0.5-0.5-0.4c0.2 0.1 0.5 0.3 0.5 0.3m6.1 6.7c-0.2 0-0.4 0.1-0.6 0.1l0.6 0.6v-0.1s0.1 0.1 0.1 0 0-0.1 0-0.1v-0.1s0 0 0-0.1c0.1-0.1 0-0.2-0.1-0.3m1-0.3c-0.2 0.1-0.5 0.2-0.7 0.3 0.1 0.1 0.3 0.2 0.4 0.4l1.9 1.9v0.1l0.2 0.2 0.2-0.1-0.4-0.5 0.1 0.1c0-0.1-0.2-0.1-0.1-0.2-0.1-0.1-0.2-0.2-0.3-0.4h0.1l-0.3-0.3c-0.1 0-0.1-0.1-0.2-0.1-0.2-0.3-0.4-0.6-0.7-0.8 0-0.3-0.2-0.5-0.2-0.6m5 4.7c-1.4-1.7-3.3-3.8-4.8-5.3 0.1 0.1 0.1 0.2 0.1 0.3 0.2 0.2 0.3 0.4 0.5 0.6 0-0.1 0-0.1-0.2-0.3 0.2 0.1 0.2 0.1 1.2 1.1l-0.3-0.3h-0.1s-0.1-0.1-0.2-0.2h-0.1c0.6 0.7 1.2 1.4 1.8 2.1l0.1 0.1c-0.1 0-0.1-0.1-0.2 0l0.5 0.6c-0.2-0.1-0.4-0.3-0.5-0.5 0.1 0.2 0.2 0.5 0.3 0.7l-0.1 0.1 0.1 0.1h-0.1l-0.4-0.4c-0.1-0.1-0.1 0-0.1 0v0.1l-0.1 0.1c0 0.1 0 0.1 0.3 0.4h-0.1c-0.1 0-0.1 0-0.4-0.3h-0.1l-0.2-0.2-0.1-0.2c0-0.1 0-0.1 0.1-0.1s0.2 0.1 0.3 0.2c0-0.2-0.6-0.9-0.8-1.1-0.1-0.1-0.1 0-0.1 0 0 0.1 0 0.1 0.1 0.4l-0.6-0.6h-0.1c-0.3-0.3-0.5-0.6-0.8-0.8 0 0.3 0.4 0.4 0.3 0.7 0 0.1 0.1 0.1 0.2 0.2l0.1 0.1c0.4 0.4 0.7 0.9 1.1 1.3l0.1 0.1 0.2 0.3c0.1 0.2 0.3 0.3 0.4 0.4l0.2 0.3h-0.1l-0.1 0.1h0.1-0.2v0.2 0.1c0.2 0.3 0.2 0.3 0.2 0.4h-0.1c0 0.1 0 0.2 0.1 0.3l0.2 0.1 0.3 0.4c-0.1 0.1-0.1 0.1 0 0.6v0.1h-0.1c0.1 0.3 0.3 0.5 0.5 0.8-0.1 0-0.1 0.1-0.2 0.1 0 0.2 0.1 0.3 0.2 0.4h-0.2l-0.3-0.2h-0.2l-0.1-0.1c-0.1-0.1-0.1-0.1-0.2-0.1 0.1 0.1 0.1 0.3 0.2 0.4s0.2 0.2 0.3 0.4l0.1 0.1c0 0.1 0.1 0.1 0.1 0.2-0.2 0.1-0.5 0-0.7-0.2-0.1 0-0.1 0.1-0.2 0.1-0.1 0.2-0.1 0.2 0.1 0.5h0.2c0.2 0.3 0.4 0.2 0.4 0.2h0.1c0.3 0.2 0.5 0.4 0.7 0.6l0.4 0.7c1 1.1 1 1.1 1.3 2.4 0 0.1 0 0.2-0.1 0.2l-0.1 0.1c-0.3-0.1-0.6-0.2-0.8-0.4-0.2 0-0.5 0-0.7 0.1-0.3 0-0.3 0-0.4-0.1h-0.1v0.1c0 0.1 0.1 0.1 0.1 0.2-0.1 0.1-0.2 0.1-0.4 0.1v0.1c0.4 0.5 0.4 1.1 0.8 1.5 0.1 0.3 0.3 0.6 0.4 0.9 0.1 0.4 0.1 0.9 0.3 1.3l0.1 0.2s0 0.1 0.1 0.1l0.1 0.1c0 0.2 0 0.3 0.2 0.7h0.3c0.1 0 0.1-0.1 0.2-0.1 0.1 0.1 0.1 0.2 0.2 0.2s0.1-0.1 0.2-0.1c0.1 0.1 0.3 0.2 0.4 0.2 0.1 0.2 0.2 0.4 0.4 0.5v-0.2h-0.1l0.1-0.1c0.5 0 0.1-0.7 0.6-0.8 0.3-0.3 0.2-0.8 0.6-1l-0.2-0.5c-0.3-0.4-0.4-0.8-0.5-1.3 0-0.1 0-0.2-0.1-0.2 0-0.1 0.1-0.1 0.2-0.1 0-0.3 0-0.3 0.2-0.6 0.1 0 0.1 0 0.2-0.1-0.1-0.1-0.1-0.3-0.2-0.4 0 0 0-0.1-0.1-0.1-0.4-0.8-0.6-1.1-0.1-1 0.1 0.1 0.2 0.1 0.3 0.2h0.2l0.1-0.1c-0.1-0.2-0.1-0.3-0.2-0.5l0.2-0.2c0-0.1 0-0.3-0.1-0.4 0.7 0.2 0.7 0.9 1.1 1.3l0.3 0.3c0.8 0.8 1.5 1.7 2 2.8v0.4c-0.1 0-0.1 0-0.3 0.1l0.1 0.2c0.2 0.2 0.2 0.5 0.5 0.6h0.2c-0.1-0.2-0.1-0.4-0.2-0.6 0-0.6-0.2-1.1-0.4-1.6 0-0.1 0-0.1-0.1-0.2l-0.1 0.1s-0.1-0.1-0.1-0.2-0.1-0.2-0.1-0.2h0.1c0.1 0.1 0.2 0.2 0.2 0.3-0.1-0.6-0.7-1-1-1.5-0.3-0.1-1-1.2-1.1-1.2-0.1-0.2-0.1-0.2-0.2-0.5h-0.1c-0.1-0.1-0.2-0.2-0.2-0.3v-0.1-0.1-0.1c-0.1-0.2-0.2-0.3-0.3-0.5h0.1c0.6 0.6 1.1 1.2 1.6 1.9 0.3 0.4 0.6 0.9 0.9 1.4 0.7 1.4 0.7 1.4 0.8 1.4l0.3 0.6v-0.1c0 0.1 0 0.2 0.3 0.7v-0.2-0.1c0.1 0.3 0.3 0.7 0.4 1h0.1c0-0.1 0-0.3-0.1-0.4 0-0.1-0.1-0.2-0.1-0.2 0-0.1-0.1-0.2-0.1-0.3l0.1 0.1c-0.1-0.2-0.1-0.4-0.2-0.6 0-0.1-0.1-0.3-0.2-0.4 0 0.1 0.1 0.2 0.1 0.4l-0.6-1.2s0-0.1-0.1-0.1v-0.1c0 0.1 0.1 0.1 0.1 0.2-0.1-0.2-0.2-0.4-0.2-0.6 0.1 0.2 0.2 0.4 0.3 0.5 0 0.1 0.1 0.2 0.1 0.2 0.1 0.4 0.3 0.8 0.5 1.1l0.2 0.4c0.1 0.1 0.1 0.3 0.2 0.4v0.1 0.1 0.1c0 0.1 0.1 0.2 0.1 0.3v0.1 0.1c0.1 0.1 0.1 0.3 0.2 0.4v0.1c0-0.1-0.1-0.2-0.1-0.3l-0.1-0.2c0-0.1-0.1-0.2-0.1-0.3s-0.1-0.2-0.1-0.2c-0.8-1.8-1.9-4.3-2.8-6-2.8-4.1-3.1-4.7-4.5-6.4m-9.1-3.6c-0.1 0.1 0 0.2 0 0.2l0.1 0.1c0 0.1 0 0.1 0.1 0.2 0 0.1 0.1 0.1 0.1 0.2l0.1 0.1v-0.1-0.1l-0.1-0.2s-0.1-0.1-0.1-0.1v-0.1c-0.1-0.1-0.2-0.1-0.2-0.2m6.1 4.8c-0.1-0.1-0.1-0.2-0.2-0.3-0.2-0.1-0.3-0.3-0.5-0.5 0 0.1 0.2 0.2 0.1 0.4l-0.6-0.7h-0.2c-0.2-0.4-0.5-0.7-0.6-0.7l-0.1-0.1c-0.1-0.1-0.3-0.2-0.4-0.3-0.2-0.1-0.3-0.3-0.5-0.4s-0.4-0.1-0.6-0.2l-0.1-0.3h0.1l-0.1-0.1c0-0.1-0.1-0.3-0.2-0.4l-0.4-0.5-0.5 0.1c-0.4-0.7-0.5-0.8-0.6-0.8h-0.1-0.3c0 0.1 0 0.1 0.4 0.5 0.1 0.1 0.3 0.2 0.3 0.4-0.1 0.1-0.2-0.1-0.4-0.1 0.1 0.3 0.3 0.6 0.7 0.6 0 0 0 0.1 0.1 0.1l0.1 0.1c0.1 0.1 0.2 0.2 0.3 0.4-0.3 0-0.3 0-0.1 0.2h0.1l0.3 0.2h0.1c-0.1-0.1-0.1-0.2-0.2-0.2 0.2 0.2 0.4 0.4 0.5 0.6v0.1c0.1 0.1 0.1 0.2 0.2 0.2h0.3v-0.1c0.4 0.1 0.5 0.6 0.8 0.7 0.1 0.2 0.4 0.3 0.4 0.7-0.1 0-0.2-0.1-0.4-0.1h-0.1v0.1s0 0.1 0.1 0.1h-0.1c0.1 0.2 0.1 0.2 0.2 0.2 0.2-0.2 0.3 0 0.4 0.2h-0.1c0 0.1 0 0.2 0.1 0.2h-0.1c0 0.1 0.2 0.4 0.3 0.4 0-0.1 0-0.1 0.1-0.1l0.5 0.1s0.3 0.3-0.1 0.3c-0.1 0.1 0 0.1 0 0.2l-0.1 0.1c0.3 0.4 0.3 0.4 0.2 0.6l0.1 0.1c0.1 0 0.1-0.1 0.1-0.1v-0.2l0.2 0.1h0.2c-0.2-0.3-0.2-0.3-0.2-0.4h0.2 0.2v-0.2c0.1 0 0.2 0.1 0.4 0.2 0.1 0 0.1 0 0.2-0.1 0.1 0-0.1-0.1-0.1-0.2h0.1v-0.1c-0.1-0.2-0.2-0.3-0.4-0.4v-0.1l-0.1-0.1h0.1v-0.4m-4.2-1.4m1 0-0.5-0.6c-0.1-0.1-0.2-0.1-0.2-0.1l-0.1-0.1s0 0.1-0.1 0.1v0.2c-0.1-0.1-0.2-0.2-0.3-0.2h-0.1c0.1 0.2 0.3 0.4 0.4 0.6v0.1h-0.1l-0.1 0.1-0.1-0.1h-0.1l0.6 0.9h0.2c0.1 0.1 0.2 0.3 0.3 0.4 0 0-0.1 0-0.1 0.1s0 0.2 0.1 0.2c0 0.1 0.1 0.2 0.2 0.3v0.1c0.1 0.3 0.4 0.5 0.5 0.4s0.1-0.1 0.3 0v-0.5l0.6-0.1-0.2-0.1-0.1-0.1c-0.1-0.1-0.1-0.1-0.1-0.2l-0.6-0.9c-0.1-0.1-0.1-0.2-0.2-0.3h0.1c-0.3 0-0.3-0.1-0.3-0.2m15.5 20.9-0.8-3.7c-0.2-0.3-0.3-0.7-0.5-1-0.1 0.8 0.4 1.4 0.4 2.1l-0.1-0.1c-0.1-0.2-0.2-0.4-0.3-0.5-0.1 0-0.2 0.1-0.3 0.1l-2.5-4.6c-0.2 0.4-0.6 0.5-0.8 0.8-0.3-0.4-0.3-0.4-0.6-0.5-0.1 0.2-0.3 0.5-0.3 0.7-0.2 0-0.4 0.1-0.6 0.2 0.1 0.6 0.1 0.6 0 0.8h-0.3l-0.2 0.2h-0.3-0.1c-0.3 0.1-0.6 0-0.7-0.2l-0.2-0.1c0 0.5 0.1 0.9 0.2 1.4-0.2 0-0.4 0.1-0.5 0.1 0.1 0.4 0.2 0.8 0.3 1.3-0.2 0-0.5 0.1-0.6 0.3 0.1 0.7 0.2 1.4 0.3 2 0 0.2 0.1 0.4 0.1 0.6l-0.5 0.1c0.1 0.5-0.2 0.9-0.3 1.4-1.3 0.8-0.1 2.4-1.1 3.3h-0.1l-0.3 0.1c0 0.1 0 0.1-0.4 2.4v0.6c0.3 0 0.6 0 0.9 0.1 0 0.1 0.1 0.2 0.1 0.3-0.2 0.6-0.2 0.6-0.2 2.7v0.5c-0.1 0.4-0.1 0.4-0.4 0.7 0 0.4 0.1 0.7 0.1 1.1v0.3c0 0.7 0.1 0.9 0.7 1.6h0.3c0.1 0.3 0.2 0.5 0.2 0.8h0.3c-0.2 1.3-0.2 1.3 0.9 1.9 0 0.3-0.1 0.5-0.1 0.8 0.4 0.3 0.6 0.9 1.2 1.1 0.2-0.2 0.3-0.5 0.4-0.7 0.2 0 0.4 0 0.5-0.1h0.1 0.5c0 0.1 0.1 0.2 0.1 0.3 0.7-0.1 0.8-1.2 1.7-1.1l0.1-0.1c0.1-0.2 0.2-0.3 0.4-0.4l0.2 0.1c-0.1 1.1-0.1 1.1 0.1 1.3 0.3-0.1 0.6-0.1 0.8-0.2-0.1 0.3-0.1 0.6-0.3 1.1-2 7.6-2 7.6-2.3 8.3l-0.1 0.3c-0.8 1.7-1.3 2.9-5.2 8.8-0.3 0.4-0.7 0.8-1 1.2-1.1 1.4-2.3 2.8-3.6 4l-0.1 0.2c-0.4 0.3-0.4 0.3-0.6 0.6-0.5 0.4-0.5 0.4-0.6 0.6l0.1-0.1c1.4-1.3 3.3-3.2 4.7-4.6 1.7-1.9 1.7-1.9 4.6-6 1.4-2.1 1.4-2.1 3.6-6.6 1-2.4 1-2.4 2.5-7.2 1.1-4.5 1.3-8.5 1.4-11.6 0-2.7 0-2.7-0.7-7.8m-23 29.2c0.1-1.5-0.1-1.6-0.4-1.8h-0.8c-0.7-0.2-0.9-1.5-1.9-1.1h-1c-0.6-0.3-1.1-0.5-1.2 0.1-0.2 0.1-0.3 0.2-0.8-0.1 0-0.2 0-0.2 0.4-0.4-1-0.7-1-0.7-1.6-0.7-0.1 0-0.2 0-0.3-0.1-0.2-0.2-0.6-0.2-0.8-0.1 0 0.2-0.1 0.5-0.1 0.7h-0.6c0-0.2 0.1-0.3 0.1-0.5l0.3-0.3 0.2-0.1-0.1-0.2s-0.3-0.1-0.9-0.3h-0.4l-0.2 0.1c0 0.4-0.1 0.7-0.7 0.6 0-0.1 0-0.3 0.1-0.4 1-1.1 1-1.1 0.8-1.6h-0.4c0-0.3 0-0.5 0.1-0.8-0.1-0.3-0.2-0.6-0.4-0.9 0 0-1.6-0.8-2.1-1-0.4-0.2-0.8 0.1-1.2 0.1h-0.3c-1.5-0.2-1.6-0.6-1.9-1.4-0.1 0-0.1 0-0.9-0.4v-0.2c-0.6-0.1-0.5-0.4-0.5-0.7h-0.3-0.7c0-0.2-0.1-0.4-0.1-0.6 0.1 0 0.3-0.1 0.4-0.2-0.2-0.2-0.2-0.3-0.7-0.3l-0.4 0.3h-0.1c-0.2-0.2-0.5-0.2-0.7-0.1-0.3 0.7-0.3 0.7-0.6 0.8-0.3-0.2-0.6-0.6-1-0.7-0.3 0-0.7 0-1-0.1l-0.5-0.1c0-0.2 0-0.4-0.2-0.5-0.5 0-0.8-0.6-1.4-0.4 0 0.2-0.1 0.4-0.2 0.6-0.3 0-0.6 0.1-0.7 0.3-0.2 0.5 0.2 1 0 1.4-0.8-0.4-0.1-1.3-0.5-1.8 0.1-0.3 0.7-0.8 0.7-0.8l-0.1-0.2h-0.4c-0.5 0.1-0.6 0.1-0.5 0.7h-1.1c-0.4 0.4-1 0.6-1.6 0.6 0 0.3 0 0.7-0.1 1-0.2 0.2-0.4 0.2-0.6 0.2-0.2 0.2-0.3 0.5-0.3 0.8-0.6 0.4-0.8 0.8-0.8 1 0.1 0.1 0.2 0.1 0.4 0.2 0 0.6 0.7 1.4-0.1 1.9-0.1 1-0.1 1-0.3 1.2h-0.5c0 0.2 0.1 0.4 0.1 0.5-0.1 0.1-0.3 0.2-0.5 0.3v0.3c-0.4 0.1-0.7 0.2-0.7 0.9-0.2 0-0.4 0-0.6 0.1 0 0.4 0 0.8 0.1 1.3l0.2 0.1c0.2-0.1 0.4-0.1 0.6-0.1 0 0.1 0 0.3-0.1 0.4-0.2 0.1-0.4 0.1-0.6 0.2 0 0.3 0 0.3-0.4 0.6-0.1 0.3-0.1 0.3 0.3 0.7v0.1c0.1 1.4 2 1.5 2.2 2.8v0.3c2.5 3.5 2.5 3.5 2.8 3.6 0 0 1.1 0.2 2.4 1.6h0.4v1.3 0.4 0.1 0.2c0 0.1 0 0.1 0.1 0.2 0 0.1 0 0.2-0.1 0.2 0 0.1-0.1 0.3 0 0.4v0.2 0.2 0.1s0 0.1-0.1 0.3c0 0.1 0 0.3 0.1 0.4v0.2 0.2c-0.1 0.4-0.4 0.7-0.4 1.1-0.1 0.5-0.3 1.1-0.5 1.6v0.1c0.3 1.5 0.3 1.8-0.4 2.4v0.2 0.2 0.1c-0.1 0.3-0.4 0.5-0.6 0.8 0.4 0.6 0.3 0.8 0 1.3 0 0.1 0.1 0.1 0.1 0.2 0.1 0.1 0.1 0.2 0.1 0.3l-0.4 0.4c-0.1 0.4-0.1 0.4-0.1 0.6l0.2 0.1h0.3l0.1-0.7h0.4c0 0.1 0 0.2-0.1 0.3l-0.2 0.1v0.4l-0.1 0.8c-0.1-0.1-0.2-0.1-0.3-0.2v-0.2h-0.1c0 0.1 0 0.1 0.2 0.3 0.1 0.1 0.1 0.2 0.1 0.4-0.1-0.1-0.3-0.2-0.4-0.2 0 0.1 0 0.1-0.2 0.3v0.2c0.1 0 0.3 0.1 0.4 0.1v0.2c0 0.1 0.1 0 0.2 0 0 0.1 0 0.1 0.1 0.2-0.4 0-0.4 0-0.6 0.2 0 0.1 0 0.1 0.1 0.2l0.1 0.1v0.2c0 0.1 0.1 0.2 0.2 0.3l-0.1 0.1 0.1 0.1s0.1 0 0.1 0.2h0.2v0.1c0.1 0.2 0.4 0.3 0.6 0.5h0.2l0.1 0.1 0.4 0.1h0.2 0.6c0.1-0.1 0.2-0.1 0.2-0.2-0.1 0-0.3-0.1-0.4-0.1 0 0 0-0.1-0.2-0.1 0-0.1 0-0.3-0.1-0.4 0-0.1 0-0.3-0.1-0.4v-0.1c0-0.1 0-0.2 0.1-0.3h0.4v-0.2c0.3-0.3 0.6-0.5 1-0.7 0 0 0-0.1-0.1-0.1h-0.2c-0.3-0.3-0.3-0.3-0.4-0.5 0 0 0-0.1 0.1-0.1 0.1-0.1 0.2-0.2 0.4-0.2h0.5c0-0.2 0.1-0.3 0.2-0.5 0.1-0.1 0.1-0.1 0.3-0.5 0.4 0 0.4 0 0.6-0.2 0 0 0-0.1-0.1-0.2-0.1 0.1-0.3 0.1-0.4 0.1v-0.4s0-0.2 0-0.2c0.1 0 0.2 0 0.4 0.1 0 0 0.1 0.1 0.2 0.1 0.2 0 0.4 0 0.6-0.2 0 0 0-0.1 0.1-0.2l0.2-0.1v-0.4-0.2h0.6 0.2c0.1 0 0.3-0.1 0.4-0.1h0.7l1.2-0.9 0.2-0.2c0-0.1 0.1-0.2 0.1-0.3h-0.2c0-0.1 0.1-0.2 0.1-0.3-0.1-0.2-0.3-0.3-0.5-0.4v-0.2h0.4c1.6 0.3 1.6 0.3 2.3-0.3l1.9-1.7c-0.1 0.1-0.2 0.2-0.2 0.3 0.2 0 2.4-1.6 2.3-2.4 0-0.4-0.1-0.8 1.9-1.9h0.6c0.3-0.1 0.5-0.3 0.7-0.5 0.5 0 1-0.1 1.5-0.2 0.1-0.1 0.1-0.2 0.3-0.3s0.2-0.1 1.8-2c0.1 0 0.1 0 0.7-1.2 0-0.1 0.1-0.2 0.1-0.2 0.2-0.3 0.4-0.6 0.5-0.9 0-0.1 0.1-0.2 0.1-0.3v-0.2c0-0.1 0.1-0.3 0.1-0.4 0.1-0.3 0.2-0.6 0.4-0.8 0 0 1.4-1.1 1.7-1.5l1.2-1.4c0.2-0.2 0.4-0.5 0.4-0.8m-21-18.4c0-0.1-0.2 0-0.3-0.2-0.1-0.1 0-0.3 0-0.5-0.3 0.1-0.7 0.2-1 0.2h-0.3c-0.2 0-0.3-0.1-0.5-0.2h-0.2c-0.1 0-0.2 0.2-0.3 0.3h-0.6c-0.2 0-0.3-0.2-0.5-0.3s-0.4-0.3-0.7-0.3h-1.2c-0.2 0-0.4 0-0.6 0.1v1c0.2 0.2 0.4 0.4 0.7 0.6h0.4c0.4 0 0.7-0.4 1.1-0.4 0.2 0 0.4 0.1 0.6 0.1s0.4-0.1 0.6-0.1c0.4 0 0.9 0 1.3-0.1 0.1-0.1 0.2-0.1 0.3 0 0.3 0.1 0.6 0.1 0.8 0.1h0.3c-0.1-0.2 0-0.3 0.1-0.3m-8.9 0.4c0-0.1 0.1-0.3 0-0.4s-0.2 0-0.3-0.1c-0.1 0-0.2-0.1-0.3-0.2h-1.1c0.1 0.1 0.1 0.2 0.2 0.3l0.1 0.1c0.1 0.1 0.1 0 0.3 0s0.4 0.2 0.5 0.2c0 0 0.1 0.1 0.1 0.2v0.1c0.1 0 0.2 0.1 0.3 0s0 0.1 0.2-0.2m-1-1.9h2.5c-0.3-0.5-0.8-0.8-1.3-1h-0.4c-0.4 0.1-0.7 0.1-1.1 0-0.2-0.1-0.3-0.3-0.5-0.5-0.3-0.2-0.6-0.3-1-0.5s-0.4-0.2-0.4-0.3c-0.1-0.1-0.1-0.2-0.3-0.2h-0.8l-0.3 0.1c-0.1 0.1-0.3 0-0.4-0.1h-0.7-0.7c-0.7 0.5 0.4 1.5 1.3 1.1 0.2-0.1 0.3-0.3 0.6-0.4h0.6s0.7 0.2 0.8 0.6c0 0.1 0.1 0.1 0.2 0.2 0.3 0.1 0.5 0.2 0.8 0.2 0.2 0 0.3 0 0.4 0.2 0 0.3 0.4 0.5 0.7 0.6m28.5-38.2-0.4-0.4c-0.1-0.1-0.2-0.1-0.3-0.2-0.3-0.1-0.3-0.1-0.3-0.1l-0.4-0.4c-0.1-0.1-0.2-0.2-0.3-0.2h-0.3c-0.1 0-0.1 0.1-0.1 0.1s0.1 0.2 0 0.2v0.1c-0.2 0-0.3-0.1-0.5-0.1s-0.2 0.1-0.2 0.2 0 0.1-0.1 0.1h-0.3l-0.4-0.4c-0.1-0.1-0.2-0.1-0.3-0.2l0.1 0.2 0.2 0.2-0.2-0.1s-0.3 0-0.3 0.1c0 0.2 0.4 0.5 0.5 0.5v-0.1c0.3-0.1 0.6 0.2 0.9 0.5-0.2-0.1-0.5 0-0.7 0.1l0.3 0.3 0.1-0.1h0.3 0.1c0.1 0.1 0.2 0.3 0.4 0.4l0.3 0.2h0.1c0.1-0.1 0.2-0.1 0.4-0.1h0.1c0.2-0.1 0.4 0.2 0.5 0.2 0.2 0.1 0.4 0.1 0.5 0v-0.2c-0.1-0.2-0.1-0.2-0.1-0.3v-0.1h0.1c0-0.1-0.1-0.2 0-0.4-0.1 0.1-0.1 0.1 0.3 0m-11.6 14.3c0-0.2-0.1-0.3-0.1-0.3-0.3 0-0.3 0-0.4-0.1-0.2-0.1-0.4-0.2-0.6-0.4l-0.2-0.2c-0.2-0.1-0.4 0-0.6-0.1-0.1 0-0.2-0.1-0.3-0.1 0.1-0.4 0.1-0.4 0.1-0.5s0.1-0.1 0.2-0.1c0.1-0.1 0.1-0.3 0-0.5l-0.1-0.1h-0.2s-0.3 0.1-0.3 0.2v0.2 0.3 0.1c-0.2 0.4-0.5 0.8-0.8 1.1-0.1 0.1-0.2 0.3-0.3 0.4s-0.1 0.3 0 0.4c0 0.1 0.1 0.2 0.1 0.3l2.1-0.1c0.2 0 0.3 0 0.5 0.3s0.5 0.4 0.8 0.6c0 0 0-0.1 0.1-0.1s0.2-0.1 0-0.7c-0.2-0.1-0.2-0.3 0-0.6m-5.8-0.7c-0.1-0.1-0.2-0.1-0.3-0.1h-0.2-0.2c-0.1 0-0.3-0.1-0.4-0.2s-0.2-0.1-0.2-0.1h-0.2l-0.3 0.1c0.1 0 0.2 0.1 0.3 0.1 0.1 0.1 0.1 0.2 0.2 0.2l0.1 0.1c0.1 0.1 0.2 0.1 0.3 0.2s0.1 0.1 0.2 0.2c0.1 0 0.1 0.1 0.2 0.1 0.1-0.1 0.2-0.1 0.5-0.6m-1.6-24c-0.2 0-0.4 0-0.5-0.1h-0.1c0.2 0 0.4 0.1 0.5 0.2h-0.3c0.1 0 0.2 0.1 0.3 0.1 0.2 0.1 0.4 0.1 0.6 0.2-0.3-0.1-0.5-0.2-0.8-0.3-0.1 0-0.2 0-0.3-0.1-0.2-0.1-0.4-0.1-0.7-0.2h-0.1c0.2 0 0.4 0.1 0.6 0.2h-0.1 0.1l-0.4-0.1h-0.3-0.2 0.1c-0.2 0-0.3-0.1-0.5-0.2h0.2-0.1 0.2c-0.1 0-0.1 0-0.2-0.1l-0.3-0.1-0.6-0.1h0.1-0.1-0.2-0.1 0.1-0.1-0.1-0.2 0.3l-0.4-0.1h-0.2-0.2 0.2c0.1 0 0.3 0.1 0.4 0.1h-0.4c-0.1 0-0.2 0-0.3-0.1h0.1-0.1 0.1 0.1l0.2 0.1h-0.1 0.1 0.2 0.1 0.1 0.1l0.1 0.1h-0.3-0.2-0.1-0.1-0.2l0.2 0.1h0.1 0.1 0.1l0.1 0.1h-0.1-0.1-0.1-0.1l0.1 0.1c0.1 0 0.1 0.1 0.2 0.1l0.1 0.1h-0.1l-0.1-0.1-0.2 0.3h-0.1-0.3 0.2 0.1 0.1-0.3-0.1-0.1l0.2 0.2h-0.3v0.1l-0.1 0.1v0.1h-0.4v0.2h0.3v0.1s0 0.1 0.1 0.1v0.1h-0.1-0.1-0.2-0.2v0.1h-0.2-0.3v0.3h-0.1c-0.1 0.1-0.1 0.1 0.1 0.3 0.1 0 0.2 0 0.2 0.1h0.2l0.1 0.1s0.1 0.1 0.2 0.1h0.1 0.1 0.3v0.2l-0.1 0.1h-0.2-0.1-0.1-0.2v0.1h-0.2v0.1l0.1 0.1c0.1 0 0.3 0.1 0.4 0.2h0.1 0.1 0.1l-0.1-0.1h0.1 0.2v-0.1h0.1 0.2c0.1-0.1 0.1 0 0.2 0h0.2l0.1 0.1h0.3l0.1 0.1h0.1 0.1l0.1 0.1h0.1 0.1l0.1 0.1 0.1 0.2 0.1 0.1h0.1l0.2 0.2h0.1l0.5 0.5v0.1c0 0.1 0 0.1 0.2 0.2 0 0.1 0.1 0.1 0.1 0.2v0.2h0.2c0 0.1 0.1 0.1 0 0.2l-0.1 0.1c0.1 0.1 0.1 0.2 0.2 0.3h-0.1c0 0.1 0.1 0.1 0.1 0.2 1 0.2 1 0.2 1.2 0.2h0.3 0.4v-0.1c0.4-0.2 0.5 0.4 0.9 0.4h0.1c0.2 0.1 0.3 0.2 0.5 0.3v0.1h-0.7c-0.4 0-0.7-0.3-1-0.1 0.1 0.1 0.2 0.2 0.4 0.3v0.1h-0.1s-0.2 0.1 0 0.3 0.5 0.1 0.7 0.3h0.1c0-0.1 0.1-0.1 0.1-0.2h0.3c-0.1-0.1-0.1-0.2-0.2-0.3h-0.3l-0.1-0.1h-0.2v0.1h0.2c0.1 0.1 0.3 0.1 0.4 0.1h0.2c0.1 0 0.2 0.1 0.3 0.1v0.1 0.1 0.1 0.1c0.1 0.1 0.2 0.1 0.3 0.2 0 0.1 0.1 0.2 0.1 0.3h-0.3s0 0.1-0.1 0.2h-0.1-0.1-0.1c0.1 0.1 0.1 0.3 0.1 0.4h-0.2c0 0.1 0 0.1-0.2 0.2v0.1 0.1 0.1c0.2 0.2 0.6 0.2 0.8 0.6-0.1 0-0.1 0.1-0.2 0.1 0 0 0.3 0.8 0.8 0.6v-0.1h0.1 0.2c0.1 0.1 0.1 0.1 0.1 0.2h-0.1l-0.1 0.1c0.4 0.8 0.4 0.8 0.5 0.8 0.1-0.1 0.1-0.2 0.2-0.3h0.2c0.1 0.1 0.1 0.3 0.2 0.4 0 0.1-0.1 0.1-0.2 0.2-0.3 0.4 2.7 2.7 3 2.6h0.1c0.1 0 0.1 0 0.2-0.1h0.1c0.7 0.1 1.7 1.3 2 0.4v-0.1l-0.1-0.2c-0.1-0.3 0.1-0.7-0.2-1s-0.5-0.4-0.6-0.8v-0.1c0.1 0 0.1-0.1 0.2-0.1h0.2c0.1 0 0.1 0 0.2-0.1-0.2-0.3-0.2-0.3-0.1-0.4h0.1v-0.1c-0.1-0.2-0.2-0.3-0.3-0.5 0.1-0.4-0.4-0.4-0.5-0.7 0.3-0.1 0.3-0.1 0.3-0.1 0-0.1-0.1-0.2-0.2-0.3h0.5c-0.1-0.1-0.2-0.2-0.3-0.4h0.3c0.1 0.1 0.2 0.3 0.3 0.4h0.3c0.1-0.1 0-0.3 0.1-0.5h0.1c0.1 0 0.2 0 0.2-0.1l-0.1-0.1v-0.3c0-0.1 0-0.1-0.1-0.2l0.1-0.1c0-0.1 0-0.1-0.1-0.3l0.1-0.1-0.1-0.1v-0.1l0.1-0.1-0.3-0.3h0.1 0.1 0.1c0.6 0.2 0.6 0.2 0.9 0.1 0.1-0.1 0-0.3 0-0.4h0.2l0.1-0.1v-0.1l0.1-0.1c0-0.2-0.2-0.3-0.2-0.5 0.1 0 0.2 0 0.3-0.1 0-0.1-0.1-0.2-0.2-0.3h-0.1v0.1 0.1h-0.1c-0.2 0-0.3-0.2-0.5-0.2h-0.1c-0.3 0-0.6-0.1-0.8-0.3-0.1-0.1-0.1-0.1-0.1-0.2 0.1 0 0.2 0 0.3-0.1 0-0.1 0-0.1-0.1-0.2 0.3 0.1 0.5 0.4 0.9 0.5l0.1-0.1-0.1-0.1c0.1-0.1 0.2-0.1 0.2-0.1-0.7-0.4-1.3-0.8-2.1-1.1v-0.1c0.3 0.2 0.3 0.2 0.4 0.2h0.7c-0.1-0.1-0.3-0.2-0.4-0.3l-0.1-0.1c-0.3-0.2-0.4-0.3-0.6-0.2v0.1h-0.2s-0.1-0.1-0.1-0.2l-0.4-0.1v-0.1h0.2l0.3 0.2h0.2v-0.1h0.1 0.2c-0.2-0.2-0.4-0.3-0.7-0.4v0.1c-0.4 0.2-0.4 0.2-0.5 0.1h0.3l-0.1-0.1h0.1l0.1-0.1c-0.4-0.2-0.9-0.3-1.2-0.5h0.1l-0.4-0.2c-0.5-0.2-1-0.3-1.4-0.5 0 0-0.1 0-0.1-0.1l-0.1-0.1h0.1 0.1c0.1 0 0.2 0.1 0.3 0.1h0.1c0.2 0.1 0.5 0.3 0.7 0.4l-1.2-0.6h-0.1l-0.2-0.2h-0.1-0.1c-0.1-0.1-0.3-0.1-0.4-0.2h0.1s-0.4-0.2-0.6-0.1c0.1 0 0.1 0.1 0.2 0.1-0.2-0.1-0.4-0.1-0.5-0.2l-0.8-0.3h0.1c-0.3-0.1-0.3-0.1-0.4-0.2-0.5-0.2-0.9-0.4-1.3-0.6h-0.2-0.2c-0.1 0-0.2-0.1-0.3-0.1h0.2c-0.2 0-0.3-0.1-0.5-0.1-0.2-0.1-0.3-0.1-0.5-0.2m-4.7 0-0.1-0.1h-0.1-0.1l-0.2-0.1h-0.1-0.1v-0.1h-0.1l-0.1-0.1h-0.1v0.1h-0.1v0.1s-0.1-0.1-0.1-0.1h-0.1l-0.1 0.1v-0.1h-0.1v0.1h-0.1-0.2l-0.1 0.1h0.1l0.1 0.1v0.1h-0.1v-0.1h-0.1v-0.1h-0.3c-0.1 0.1-0.1 0.1-0.2 0.1h-0.1c-0.1 0-0.1 0.1-0.2 0.1h-0.1l-0.1 0.1h-0.1l-0.2 0.2h0.1c-0.1 0.1-0.1 0.1 0 0.1s0.1 0.1 0.2 0.1l0.2-0.1 0.1-0.1h0.1l-0.4 0.2-0.1 0.1c0.4 0 0.4 0 0.5-0.1h0.3l0.2-0.1 0.2-0.2c0.1 0 0.1 0 0.2-0.1h0.1-0.1c-0.1 0.1-0.2 0.1-0.3 0.2h0.4l-0.1 0.1h-0.2-0.1c-0.1 0-0.2 0-0.3 0.1h-0.2l-0.1 0.1h0.1v0.1 0.1h0.2-0.2c-0.2-0.3-0.2-0.3-0.3-0.3h-0.2l-0.1 0.1v0.2 0.1l0.1 0.2 0.1 0.1h0.2c-0.1 0.1-0.2 0.1-0.2 0.1l-0.1 0.1h-0.2-0.1-0.2-0.2l-0.2 0.1-0.2 0.2h0.1 0.4l-0.2 0.1v0.1c0.2 0 0.2 0 0.6-0.2l-0.1 0.2-0.3 0.2h-0.2c-0.1 0-0.2-0.1-0.3-0.2s0-0.1-0.1-0.1h-0.3c-0.1 0.4-0.1 0.4-0.4 0.4l-0.2 0.2v0.2l0.2 0.1c0.1 0 0.2-0.1 0.3-0.1s0.2 0.1 0.4 0.1c0.1 0 0.2-0.1 0.3-0.1 0.1 0.1 0.1 0.1 0.4 0h0.2l-0.1 0.2h0.3 0.2c0.5-0.2 0.5-0.2 0.5-0.3v-0.2l-0.2 0.1v-0.2h0.2l0.1-0.2v-0.2h0.1 0.3c0.1-0.1 0-0.2-0.1-0.3h0.2 0.1s0-0.1-0.1-0.2c-0.1 0-0.2-0.1-0.3-0.1l-0.1 0.1v0.2-0.1l0.4-0.2h0.1v0.1c0.2 0 0.2 0 0.4-0.1l-0.1-0.1h0.2l0.1 0.1h0.1l0.2-0.1-0.2-0.3h-0.1 0.3v-0.1h0.1l0.3-0.3h0.1v-0.1l-0.1-0.1-0.1 0.1h-0.2v-0.1h0.1 0.1 0.1s0.1 0 0.1-0.1h0.1c0.1-0.1 0-0.2 0.1-0.2m-3.4 1.4 0.1-0.2c-0.1 0-0.1-0.1-0.2-0.1v-0.1l0.1-0.1v-0.1c0 0.1 0 0.1-0.1 0.1s0.1-0.1 0.1-0.2-0.1 0-0.1-0.1v-0.1l0.1-0.2c-0.1 0-0.2 0-0.2 0.1h0.1c-0.1 0.1-0.2 0.1-0.2 0.1h-0.1c-0.1 0-0.1 0-0.1 0.1s0 0-0.1 0.1h-0.2l-0.4 0.2c-0.1 0-0.1 0.1-0.2 0.1h0.1l-0.2 0.1v0.1h0.1 0.2 0.2l-0.1 0.1c-0.1 0-0.1 0-0.2 0.1h-0.1l-0.2 0.1v0.1l-0.1 0.2 0.2 0.1h0.3l0.1 0.1 0.1-0.1h0.1l0.2-0.2 0.1 0.1 0.1-0.1h0.1 0.1l0.3-0.3m-1.7 1c0.1 0 0.2-0.1 0.3-0.1v-0.2h-0.3l-0.3 0.2 0.3 0.1m2 1.3v-0.3l-0.3-0.1-0.4-0.1-0.3 0.1-0.5 0.1h-0.3l-0.3-0.1h-0.3l-0.1-0.2 0.2-0.4h-0.3-0.2c-0.1 0.2-0.2 0.4-0.2 0.7l-0.3 0.3v0.2l0.1 0.2h0.4l0.3-0.1c0.2 0.3 0.2 0.3 0.6 0.2h0.5l0.3-0.1 0.1-0.1 0.1 0.1c0.8 0 0.8 0 0.8-0.2-0.1-0.1-0.1-0.1 0.1-0.2m-5.3 0.4h0.2v-0.2l-0.2 0.2m1.4-0.2 0.2-0.3-0.1-0.1v-0.2h-0.2l-0.4 0.1-0.2 0.2v0.3h0.2l0.1 0.1 0.4-0.1m0.6-0.9 0.3-0.2 0.1-0.1v-0.2h-0.2l-0.1-0.1h-0.2l-0.2 0.2 0.1 0.2 0.2 0.2m0.9-0.8 0.1-0.1h-0.4l-0.2 0.1-0.1 0.1h0.3 0.2l0.1-0.1m0-0.3 0.2-0.1v-0.2h-0.2v-0.2l-0.2 0.1-0.4 0.4h0.1 0.2 0.3zm0.2-0.8 0.4-0.2h-0.2-0.2 0.1l-0.1 0.2m-1.3 1 0.2-0.1 0.2-0.2v-0.1l0.2-0.2v-0.1-0.1h-0.1l0.1-0.1v-0.1h-0.1l-0.4 0.1-0.1 0.1h0.1v0.1l-0.2 0.1h-0.4l-0.1 0.2h0.1v0.1l0.2-0.1h0.1 0.2l-0.1 0.2 0.1 0.2m-0.6 0 0.2-0.1v-0.1h-0.2l-0.2 0.1 0.2 0.1zm0 0.9s0.1-0.1 0.1-0.2c0 0 0-0.1-0.1-0.1s-0.2 0.1-0.2 0.1v-0.1h-0.2c0 0.2-0.1 0.6-0.3 0.4l0.1-0.3h-0.3l-0.4 0.4v-0.2l0.3-0.3-0.1-0.1-0.3 0.3s-0.1 0.1-0.1 0.2v0.3l0.2 0.1 0.2-0.1h0.2v0.1l-0.2 0.3 0.2-0.1h0.2 0.2l0.2-0.2 0.2-0.3c-0.1-0.1 0-0.1 0.1-0.2m-2 0.5c0.1-0.1 0-0.1 0-0.1h-0.1s-0.1 0.1-0.2 0.1l-0.1 0.2h0.2c0-0.1 0.1-0.1 0.2-0.2m1-1.1 0.2-0.1 0.2-0.2v-0.1c-0.2 0-0.3 0.2-0.4 0.4m5.9 6.9 0.2-0.3-0.2-0.4h-0.7c-0.1 0.1-0.3 0.2-0.4 0.4l0.2 0.3h0.4 0.5m-4.5-4.5 0.3-0.3c-0.1-0.1-0.1-0.1-0.2-0.1h-0.3l-0.2-0.1c-0.4 0-0.4 0-0.5 0.1-0.1 0.2-0.2 0.3-0.4 0.3-0.1 0.2-0.2 0.3-0.3 0.5-0.2 0.4-0.2 0.4-0.2 0.5h0.4l0.3-0.2 0.2-0.3 0.3 0.1 0.3-0.2 0.3-0.3m-2.5 1.2 0.4-0.3v-0.3-0.2l-0.2-0.2c0.5-0.2 0.5-0.2 0.5-0.5v-0.1h-0.2l-0.3 0.1h-0.1l-0.1-0.1-0.3 0.1-0.1 0.2v0.2c-0.5 0.5-0.5 0.4-0.6 0.1h-0.2l-0.2 0.2 0.1 0.2 0.1 0.1 0.2 0.1c0 0.1 0 0.2-0.1 0.3v0.1c0 0.1 0.2 0.2 0.2 0.2 0.1-0.1 0.3-0.1 0.4-0.2h0.5m-1.6-1.1 0.3-0.3v-0.1l-0.3-0.1-0.3 0.2v0.2l-0.1 0.3 0.4-0.2m-0.6-0.3 0.3-0.2h-0.2l-0.2 0.1 0.1 0.1zm3.5-2.9 0.2-0.1v-0.1h-0.2-0.2l-0.4 0.1h0.4l0.2 0.1m-0.6 0.2 0.3-0.1h-0.3-0.2l-0.4 0.1-0.3 0.3 0.2-0.1h0.2l0.2-0.1 0.1-0.1h0.2m-0.8 0h0.1l0.3-0.2v-0.1h-0.1l-0.2 0.1-0.1 0.2zm-0.4 1.6 0.5-0.3 0.1-0.1h-0.1l-0.2 0.1-0.1-0.1 0.1-0.2 0.4-0.4h-0.2l-0.2 0.1h-0.2l-0.2 0.1c0 0.1 0 0.1-0.4 0.4h0.1c-0.1 0.1-0.2 0.2-0.3 0.1h-0.2v-0.1l0.2-0.3v-0.1h-0.1v-0.1l-0.5 0.2-0.4 0.2-0.4 0.1-0.4 0.2-0.3 0.2h0.2l0.1 0.1h0.2l0.3-0.1 0.2 0.1h0.2c-0.1 0.1-0.2 0.1-0.4 0.1h-0.2-0.1l-0.2 0.2v0.1h0.3l0.5-0.1 0.4-0.2h0.3 0.7l0.3-0.2m-0.6-1h0.2l0.2-0.1h-0.2l-0.2 0.1m-1.9 0.7 0.6-0.3h-0.4l-0.4 0.2 0.2 0.1zm2-1 0.4-0.2-0.1-0.1-0.4 0.1h-0.3c-0.4 0.1-0.8 0.3-1.2 0.5h-0.2l-0.3 0.1-0.3 0.2v0.2l0.3-0.1-0.1 0.1 0.4-0.1 0.2-0.1h0.2l0.3-0.2 0.3-0.1-0.2 0.2 0.2-0.1 0.3-0.1 0.5-0.3m-1.5 5.1 0.2-0.2-0.1-0.2-0.4-0.2v-0.4l0.3-0.3v-0.2l0.4-0.4 0.1-0.3-0.1-0.2h-0.3l-0.5 0.5-0.2 0.3-0.2 0.1h-0.1v-0.1l0.2-0.2 0.1-0.2 0.1-0.3h-0.2l-0.2 0.2-0.1 0.2h-0.3l-0.2 0.1h-0.3l0.2-0.2 0.3-0.2h-0.1l-0.1-0.1h-0.2l-0.3 0.2h-0.1l0.2-0.1 0.3-0.3v-0.1h-0.2l-0.5 0.2h-0.2l-0.3 0.1-0.4 0.2-0.3 0.3-0.5 0.2-0.2 0.2h0.2-0.1l0.3-0.1h0.3v0.2l-0.4 0.1-0.3 0.1-0.3 0.2 0.1 0.2h0.7 0.3c0.1 0 0.1 0.1 0.1 0.2 0 0 0 0.1-0.1 0.1h-0.5-0.5l-0.6 0.2-0.3 0.4h0.4 0.3l-0.1 0.4 0.1 0.2h1l0.5-0.2 0.4-0.1 0.5-0.2 0.3-0.1v0.2h0.2l0.3 0.3h0.3 0.4l0.3-0.3-0.1-0.2h0.2l0.3-0.2m-2.3 0.9 0.2-0.3-0.6 0.1-0.7 0.3 0.3 0.1 0.4-0.2c0 0.1 0.4 0 0.4 0zm0.1-3.5 0.4-0.1 0.3-0.2v-0.3h-0.1l-0.4 0.1-0.1-0.1v-0.2l-0.2-0.1h-0.5l-0.3 0.2-0.4 0.3-0.8 0.5-1.3 0.6 0.2 0.2-0.4 0.5 0.5-0.2h0.3l0.4-0.2c0.5-0.3 1-0.6 1.6-0.8l0.8-0.2m23.6 17.1 0.2-0.3-0.4-0.3 0.1-0.3v-0.6l-0.7-0.1-0.2-0.3h-0.7l-0.5 0.3-0.4 0.3-0.4-0.1 0.1-0.4 0.6-0.2 0.8-0.2 0.3-0.3h-0.5l-0.6-0.2-0.7-0.2-1-0.8-0.2-0.2 0.3-0.1 0.1-0.2-0.5-0.6-0.6-0.6-0.9-1.1-0.4-0.4-0.4 0.6c0 0.2 0 0.4 0.1 0.6l-0.5 0.2-0.3 0.4h-0.5l-0.1-0.4-0.4-0.3-0.5 0.1 0.1-0.6v-0.8l-0.1-0.4h-0.6l-0.5-0.3-0.4-0.4-0.8-0.5-0.3 0.2-0.6-0.1-0.3-0.2h-0.7l-0.3 0.3 0.2 0.4-0.2 0.6 0.1 0.4 0.2 0.5h-0.4v0.7l-0.3 0.3 0.3 0.2 0.5 0.4 0.1 0.7v0.8l-0.6 0.6-0.6 0.4-0.8 0.1 0.4 0.7c0 0.3 0 0.6-0.1 0.9l0.2 0.5-0.2 0.4-0.4 0.5-0.8 0.1-0.4-0.8-0.5-0.7c0-0.2 0-0.4 0.1-0.5v-0.6l0.2-0.6-0.9-0.1h-0.7l-0.3-0.2-0.8-0.2-0.3-0.4-0.7-0.4-0.7-0.6-1 0.2-0.1-0.4-0.1-0.9-0.4-0.2-0.2-0.4 0.5-1.1 0.7-0.8 0.7-0.7 0.6-0.2 0.5-0.3-0.1-0.4-0.6-0.2-0.6-0.3 0.8 0.1 0.6 0.2 0.4-0.1 0.2-0.4 0.5 0.2 0.4-0.1 0.1-0.3 0.3-0.1 0.2-0.4-0.5 0.1-0.5-0.1-0.1-0.2-0.5-0.3h0.4l0.6 0.2 0.4 0.2 0.5-0.1 0.4-0.4-0.3-0.3h0.4l0.2 0.3-0.3 0.3-0.3 0.6c-0.1 0.2-0.1 0.5-0.2 0.7l-0.5 0.1v0.3h0.5v0.3c0.2 0 0.4 0 0.6-0.1l0.3-0.4h0.6l0.3 0.1 0.3 0.2h0.5l0.1-0.4-0.5-0.1-0.1-0.5-0.6-0.1-0.4-0.3-0.4-0.1c0-0.1 0-0.2 0.1-0.3l0.4 0.1 0.2-0.2v-0.2h0.4l0.2-0.3 0.5-0.3 0.2-0.3-0.2-0.3-0.1-0.5 0.4-0.1 0.2-0.3-0.2-0.3-0.3-0.2-0.4-0.3h0.5l0.1-0.2h0.4l0.3 0.2h0.4l0.4-0.1-0.3-0.3 0.2-0.1 0.3 0.4h0.4l0.1 0.4 0.3 0.1 0.1 0.3 0.3 0.1 0.2 0.3 0.4 0.1 0.3 0.3 0.1 0.4-0.5 0.7-0.4 0.5 0.2 0.5-0.7 0.1-0.4-0.1h-0.4l-0.5 0.4v0.4l0.6 0.1h0.5l0.1-0.2 0.2-0.1 0.9 0.3 0.6 0.6 0.1 0.3 0.4 0.4h0.5l0.6 0.5h0.9l0.6 0.2v-0.3l-1-0.7-0.4-0.3-0.2-0.3 2.2 1.1c0-0.2 0-0.3-0.1-0.5l0.2-0.4-0.5-0.5-0.2-0.7-0.7-0.2-0.8-0.8 0.4-0.4 1.1 0.7 0.4 0.5 0.4 0.1v-0.6l0.5-0.2v-0.2h0.3l0.1-0.3-0.1-0.4h-0.7v-0.2l-0.5-0.3h-0.3l-0.4-0.2h-0.2l-0.1-0.3-0.1-0.2h-0.8v-0.4h0.4l0.2-0.2h-0.6v-0.2h0.2l-0.3-0.3-0.4-0.1 0.1-0.2-0.4-0.2h-0.4l-0.1-0.2h-0.3-0.1l0.3-0.2-0.4-0.1-0.5 0.1-0.3-0.3v-0.2h-0.3v-0.2l-0.4-0.2h-0.5l-0.1 0.2h-0.3l-0.3-0.1-0.1 0.2h-0.3v-0.3l0.2-0.3v-0.1-0.3h-0.4l-0.3 0.2h-0.3l-0.3 0.1-0.2 0.3 0.1 0.3-0.2 0.2 0.1 0.4h-0.3l-0.2-0.2 0.1-0.5 0.1-0.3 0.3-0.3 0.4-0.3h-0.4l-0.5 0.1-0.6 0.4-0.5 0.5-0.3 0.7 0.4 0.1h0.3v0.3l-0.3-0.1-0.4 0.1 0.2 0.3h0.4l0.2-0.1 0.2 0.2 0.5 0.2-0.4 0.1-0.1 0.3 0.2 0.2-0.5 0.6-0.3 0.4-0.4 0.4-0.2-0.1v-0.5l0.3-0.3-0.3-0.5-0.7 0.4-0.3-0.7-0.1-0.1 0.2-0.3 0.1-0.4h-0.2l0.1-0.3-0.2-0.4h-0.4l-0.2 0.2h-0.2l-0.4 0.3-0.1 0.3-0.2 0.2 0.2 0.4 0.2 0.2-0.2 0.3-0.3-0.1-0.1 0.4h0.4l0.5-0.3c-0.1 0.1-0.1 0.3-0.2 0.4l-0.9 0.4-0.2 0.6-0.3-0.3 0.3-0.4h-0.3l0.2-0.4h0.3l0.2-0.6-0.4-0.3-0.4 0.4-0.5 0.2 0.3 0.4-0.4 0.2-0.3 0.4h-1.1l-0.4-0.3-0.3-0.1-0.2-0.4-0.5 0.2-0.7 0.3-0.2 0.4-0.5 0.6 0.2-0.7-0.3-0.3-0.7 0.1-1.1-0.2 0.2-0.2 0.6-0.2-0.2-0.3h-0.4l-0.6-0.4 0.1-0.3-0.3-0.1h-0.2l-0.4 0.2h-0.3l0.4-0.5-0.7 0.5-0.2-0.1 0.5-0.6-0.1-0.1-0.6 0.4-0.5 0.2h-0.3l-0.6 0.2-0.7 0.3 0.8-0.4 0.8-0.2 0.4-0.2h-0.1l-0.6 0.2-0.7 0.2h-0.4l-0.9 0.3-0.3-0.1 0.3-0.4-0.4-0.2 0.2-0.2-0.1-0.1-0.4 0.1 0.2-0.2h-0.2v-0.2h-0.2-0.1c-3.3 2-6.4 4.3-9.2 7l0.4-0.1-0.1 0.2-0.7 0.3-0.4 0.4-0.4-0.1-0.3 0.4 0.9-0.4 0.4-0.1c0.2-0.3 0.4-0.5 0.6-0.7l0.3 0.1-0.1 0.5v0.4l0.2 0.2 0.4-0.1 0.1 0.2h0.2l-0.1 0.4 0.1 0.4v0.6l0.3-0.1v0.3l-0.1 0.4 0.3 0.2-0.4 0.4 0.2 0.3-0.3 0.4 0.2 0.2 0.2 0.1-0.3 0.4-0.1 0.5-0.3 0.5-0.2 0.5 0.3 0.1-0.3 0.6 0.1 0.6-0.1 0.4 0.3 0.4 0.3 0.3 0.3 0.2-0.1 0.2 0.3 0.5 0.2 0.4-0.2 0.8-0.3 0.7-0.1-0.4-0.1-0.6 0.1-0.3-0.2-0.4-0.2-0.2 0.2-0.5h-0.3l-0.1-0.3-0.2-0.1-0.1-0.2h-0.3v0.4l0.2 0.3 0.1 0.4 0.3 0.7-0.1 0.7-0.1 0.8-0.3 0.7-0.4 0.9c-0.1 0.3-0.3 0.7-0.4 1l-0.3 0.2c-0.1 0.2-0.2 0.5-0.2 0.7v0.7l-0.3 0.7-0.1 0.6 0.1 0.5-0.2 0.7 0.1 0.6 0.3 0.5v1l0.3 0.4v0.5l0.2 0.6h0.5l0.3 0.4 0.5 0.4 0.3 0.6v0.9l0.1 0.7 0.1 1.1 0.3 0.5 0.4 0.6 0.1 0.4-0.5 0.3 0.2 0.5 0.4 0.5 0.6 0.5 0.3 0.5-0.1 0.4 0.1 0.4 0.5 0.3 0.4 0.5 0.3 0.4v0.5l0.3-0.1 0.1-0.5-0.1-0.7-0.4-0.3v-0.5l-0.5-0.5-0.2-1.4-0.4-0.5-0.1-0.6-0.4-0.2-0.2-0.8-0.4-0.7 0.1-0.9h0.4l0.5 0.3 0.3 0.5-0.1 0.8 0.5 1 0.5 0.8 0.5 0.6 0.4 0.6v0.7l0.6 0.4 0.4 0.6 0.3 0.7 0.7 0.9 0.3 0.8 0.4 0.4-0.4 0.3-0.1 0.5 0.8 0.8 0.7 0.6 0.8 0.3 0.9 0.6 1 0.5 1.2 0.7 1 0.3h0.6l0.2-0.3 0.7-0.1 0.8 0.4 0.9 0.7 0.5 0.6h1l0.4 0.2 0.4 0.6 0.9 0.3v-0.4l0.5 0.3c1.4 1.9 1.4 1.9 1.3 2.4l0.3 0.3 0.4-0.2 0.5 0.2c1 0.9 1 0.9 1.4 0.8l1.2 0.6 0.7 0.3-0.1-0.6 0.3-0.4 1.1 0.1 0.1 0.4h0.4l0.2-0.5-0.4-0.5h-1.2-0.8l-1.4-0.2-0.5-0.4-0.7-0.7v-0.6-0.8l0.2-1v-0.7l-0.4-0.5-0.7-0.4h-1.1l-0.8-0.2-0.8 0.3-0.6-0.4 0.5-0.4v-0.8l0.2-0.5 0.3-0.7v-0.8l0.5-0.3 0.1-0.6-0.4-0.2-1.2 0.1-0.7 0.1-0.3 0.6-0.3 0.8-0.4 0.8-0.6 0.1-0.9 0.2-0.9 0.1-0.4-0.6-0.8-0.4-0.3-0.7-0.5-0.9-0.3-1.5-0.1-1.1 0.4-0.8 0.2-0.9-0.3-1 0.7-0.9h0.6l1.2-1 0.8 0.1 0.6 0.2 0.5-0.2 0.4 0.5h0.7 0.5l-0.1-0.4 0.2-0.6h0.8 0.7l1.1 0.1 0.4 0.6h0.4l0.2-0.3 0.3-0.1 0.5 0.5 0.5 0.6v0.7l0.3 0.4 0.1 0.4 0.4 0.3 0.2 0.5 0.4 0.2v0.5l0.4 0.1 0.3-0.4 0.2-0.6-0.2-0.7-0.2-1-0.7-0.8c0-0.4 0-0.8 0.1-1.4l0.3-0.6 0.5-0.9 0.7-0.3 0.8-0.7 0.7-0.5 0.7-0.3 0.1-0.5 0.6-0.3-0.5-0.8-0.3-0.4 0.2-0.4-0.3-0.4 0.5-0.3 0.5 0.6 0.3-0.6 0.3-0.5 0.3-0.3 0.3-1.1h1l0.6-0.4 0.8-0.1-0.2-0.4-0.1-0.9 0.5-0.7h0.6l0.2-0.4h0.8l0.7-0.5 0.4-0.5c1.2 0 1.2 0 1.8 0.1l-0.2 0.2h-1l-0.5 0.4c0 0.2 0 0.4 0.1 0.6l0.4 0.2 0.4-0.4 0.3-0.2 0.6-0.2 0.6-0.3 0.7-0.2 0.4-0.6 0.5-0.4v-0.5l-0.7 0.2-0.4 0.7-0.8 0.1-0.7-0.3-0.7-0.5-0.4-0.9 0.6-0.5-0.1-0.7-0.9-0.1-0.9 0.3-1 0.6-1 1-0.8 0.6 0.3-0.5 0.5-0.6 0.3-0.3-0.9-0.2h1l0.2-0.5 0.5-0.4h0.7l0.2-0.5 0.5-0.2h0.9l1.6-0.1 0.8 0.1h0.6l0.6-0.4 0.5-0.6 1-0.1 0.4-0.4"/>
		</g>
	
	<path class="st3" d="m84.9 49c-7.6 8.5-15.9 16.5-24.6 24-4.3 3.7-8.8 7.2-13.3 10.7-4.6 3.5-9.3 6.7-14.2 9.8-2.4 1.5-4.9 3-7.5 4.4-2.5 1.4-5.1 2.7-7.8 3.8-2.7 1.2-5.6 2.1-8.5 2.7-1.6 0.3-3.2 0.3-4.8 0-0.9-0.2-1.7-0.6-2.4-1.2-0.7-0.7-1.2-1.5-1.4-2.4-0.4-1.7-0.1-3.3 0.3-4.8 0.4-1.4 1-2.8 1.6-4.1 1.3-2.6 2.8-5.1 4.5-7.4 3.3-4.7 7-9.1 10.9-13.3-3.5 4.5-6.7 9.2-9.7 14-1.5 2.4-2.8 4.9-3.9 7.5-0.5 1.3-1 2.6-1.3 3.9s-0.4 2.6-0.1 3.7c0.1 0.5 0.4 0.9 0.8 1.2s0.9 0.5 1.4 0.6c1.3 0.2 2.5 0.2 3.8-0.1 2.7-0.6 5.3-1.5 7.8-2.6 5.1-2.3 10.1-5.1 14.8-8.1 4.8-3 9.5-6.2 14.1-9.5s9.1-6.8 13.6-10.3c8.8-7.4 17.5-14.8 25.9-22.5z"/>
	<path class="st4" d="M102,44c-1.8,1.6-6-0.3-9.5-4.3s-4.7-8.4-2.9-10L110.1,12l12.4,14.2L102,44z"/>
	<path class="st4" d="m122.5 26.2c-1.8 1.6-5.3-1-8.8-4.9s-5.4-7.8-3.6-9.3c4-3.5 16.2-1.6 16.2-1.6s0.2 12.3-3.8 15.8z"/>
	<path class="st4" d="m110.3 48.6c2.7-2.4 3.7-15 3.7-15l-14.8 12.9 5.9 6.7 5.2-4.6z"/>

		<rect class="st5" transform="matrix(.7547 -.6561 .6561 .7547 -5.9464 80.146)" x="101.4" y="43.6" width="5.5" height="8.9"/>
	<path class="st4" d="m86.2 20.9c2.7-2.4 15.4-1.5 15.4-1.5l-14.8 12.8-5.9-6.7 5.3-4.6z"/>
	<rect class="st5" transform="matrix(.7547 -.6561 .6561 .7547 3.345 63.036)" x="83.2" y="22.6" width="5.5" height="8.9"/>
	<path class="st5" d="m102.1 43.4h-1.1c-0.2 0-0.4-0.1-0.6-0.1-0.4-0.1-0.8-0.3-1.2-0.4-2.1-1-3.9-2.4-5.3-4.2-1.5-1.7-2.7-3.7-3.4-5.9-0.1-0.4-0.2-0.9-0.3-1.3v-0.6c0-0.4 0-0.7 0.1-1.1 0-0.2 0.1-0.3 0.2-0.4 0.1-0.3 0.3-0.5 0.5-0.7l-3.9 3.3c-1.8 1.6-0.5 6 2.9 10s7.7 5.8 9.5 4.3l3.9-3.4c-0.2 0.2-0.5 0.3-0.8 0.4-0.2 0-0.3 0-0.5 0.1z"/>
	<path class="st5" d="m109.2 37.2h-1.1c-0.2 0-0.4-0.1-0.6-0.1-0.4-0.1-0.8-0.3-1.2-0.4-2.1-1-3.9-2.4-5.3-4.2-1.5-1.7-2.7-3.7-3.4-5.9-0.1-0.4-0.2-0.9-0.3-1.3v-0.6c0-0.4 0-0.7 0.1-1.1 0-0.2 0.1-0.3 0.2-0.4 0.1-0.3 0.3-0.5 0.5-0.7l-3.9 3.4c-1.8 1.6-0.5 6 2.9 10 3.4 3.9 7.6 5.8 9.5 4.3l3.9-3.4c-0.2 0.2-0.5 0.3-0.8 0.4-0.2-0.1-0.3 0-0.5 0z"/>
	<path class="st5" d="m116.3 31h-1.1c-0.2 0-0.4-0.1-0.6-0.1-0.4-0.1-0.8-0.3-1.2-0.4-2.1-1-3.9-2.4-5.3-4.2-1.5-1.7-2.7-3.7-3.4-5.9-0.1-0.4-0.2-0.9-0.3-1.3v-0.6c0-0.4 0-0.7 0.1-1.1 0-0.2 0.1-0.3 0.2-0.4 0.1-0.3 0.3-0.5 0.5-0.7l-3.9 3.4c-1.8 1.6-0.5 6 2.9 10 3.4 3.9 7.6 5.8 9.5 4.3l3.9-3.4c-0.2 0.2-0.5 0.3-0.8 0.4-0.2-0.1-0.3 0-0.5 0z"/>

</svg>
