<?xml version="1.0" encoding="UTF-8"?>
<svg width="65px" height="65px" viewBox="0 0 65 65" version="1.1" xmlns="http://www.w3.org/2000/svg" xmlns:xlink="http://www.w3.org/1999/xlink">
    <!-- Generator: Sketch 61.2 (89653) - https://sketch.com -->
    <title>Application Icons/Rook/65x65</title>
    <desc>Created with Sketch.</desc>
    <defs>
        <polygon id="path-1" points="0.000123149337 0.403938146 34.7188768 0.403938146 34.7188768 23.7145682 0.000123149337 23.7145682"></polygon>
        <polygon id="path-3" points="0.000246298674 0.27073974 34.7188768 0.27073974 34.7188768 12.3082072 0.000246298674 12.3082072"></polygon>
    </defs>
    <g id="Application-Icons/Rook/65x65" stroke="none" stroke-width="1" fill="none" fill-rule="evenodd">
        <rect id="Rectangle-Copy-13" fill="#17355D" fill-rule="nonzero" x="0" y="0" width="65" height="65" rx="16"></rect>
        <g id="Group" transform="translate(15.000000, 13.500000)">
            <g id="Group-3" transform="translate(0.000000, 14.703032)">
                <mask id="mask-2" fill="white">
                    <use xlink:href="#path-1"></use>
                </mask>
                <g id="Clip-2"></g>
                <path d="M2.41077142,2.78451596 L2.41077142,15.3824243 C2.41077142,18.6641557 5.11389936,21.3341729 8.43769996,21.3341729 L26.2814231,21.3341729 C29.604608,21.3341729 32.3083517,18.6641557 32.3083517,15.3824243 L32.3083517,2.78451596 L2.41077142,2.78451596 Z M26.2814231,23.7147507 L8.43769996,23.7147507 C3.78511802,23.7147507 0.000123149337,19.9763618 0.000123149337,15.3824243 L0.000123149337,1.59392302 C0.000123149337,0.936603832 0.539517245,0.403938146 1.20513941,0.403938146 L33.5133679,0.403938146 C34.1789901,0.403938146 34.7189999,0.936603832 34.7189999,1.59392302 L34.7189999,15.3824243 C34.7189999,19.9763618 30.9333893,23.7147507 26.2814231,23.7147507 L26.2814231,23.7147507 Z" id="Fill-1" fill="#2AC6EA" mask="url(#mask-2)"></path>
            </g>
            <path d="M14.7016847,29.4588295 L20.4987108,29.4588295 L20.4987108,26.5603164 C20.4987108,24.962403 19.1981112,23.6618034 17.6001978,23.6618034 C16.0016921,23.6618034 14.7016847,24.962403 14.7016847,26.5603164 L14.7016847,29.4588295 Z M21.6577607,31.7775214 L13.5420426,31.7775214 C12.9018112,31.7775214 12.3829928,31.258703 12.3829928,30.6184716 L12.3829928,26.5603164 C12.3829928,23.683717 14.723006,21.3431114 17.6001978,21.3431114 C20.4767972,21.3431114 22.8174028,23.683717 22.8174028,26.5603164 L22.8174028,30.6184716 C22.8174028,31.258703 22.2979921,31.7775214 21.6577607,31.7775214 L21.6577607,31.7775214 Z" id="Fill-4" fill="#2AC6EA"></path>
            <g id="Group-8" transform="translate(0.000000, 0.474291)">
                <mask id="mask-4" fill="white">
                    <use xlink:href="#path-3"></use>
                </mask>
                <g id="Clip-7"></g>
                <path d="M33.5134911,12.3082072 L33.5116438,12.3082072 L27.0222895,12.2971087 C26.3560516,12.2958756 25.8172733,11.7545194 25.8185048,11.0879978 C25.8197363,10.4220927 26.3597461,9.88320283 27.0241368,9.88320283 L27.025984,9.88320283 L32.3078591,9.89245151 L32.3078591,2.68464564 L28.2574774,2.68464564 L28.2574774,4.72367165 C28.2574774,5.04367603 28.1300178,5.35011568 27.9040388,5.57701667 C27.6780598,5.80330108 27.3714179,5.93031631 27.0518454,5.93031631 L20.5920469,5.92969973 C19.925809,5.92969973 19.3864149,5.38957672 19.3864149,4.72305507 L19.3864149,2.6858788 L15.336649,2.6858788 L15.336649,4.72305507 C15.336649,5.38957672 14.7972549,5.92969973 14.131017,5.92969973 L7.66690826,5.93031631 C7.34733573,5.93031631 7.04069389,5.80330108 6.81471485,5.57701667 C6.58873582,5.35011568 6.461892,5.04367603 6.461892,4.72367165 L6.461892,2.68464564 L2.41089457,2.68464564 L2.41089457,9.89430125 L7.63550518,9.89430125 C8.30112735,9.89430125 8.84052144,10.4344243 8.84052144,11.1009459 C8.84052144,11.7680841 8.30112735,12.3082072 7.63550518,12.3082072 L1.20526256,12.3082072 C0.539640394,12.3082072 0.000246298674,11.7680841 0.000246298674,11.1009459 L0.000246298674,1.4773844 C0.000246298674,0.810862746 0.539640394,0.27073974 1.20526256,0.27073974 L7.66690826,0.27073974 C8.33253043,0.27073974 8.87254027,0.810862746 8.87254027,1.4773844 L8.87254027,3.51641041 L12.9260007,3.51579383 L12.9260007,1.47861756 C12.9260007,0.811479325 13.4653948,0.271972897 14.131017,0.271972897 L20.5920469,0.271972897 C21.2576691,0.271972897 21.7970632,0.811479325 21.7970632,1.47861756 L21.7970632,3.51579383 L25.8468291,3.51641041 L25.8468291,1.4773844 C25.8468291,0.810862746 26.3862232,0.27073974 27.0518454,0.27073974 L33.5134911,0.27073974 C34.1791132,0.27073974 34.7191231,0.810862746 34.7191231,1.4773844 L34.7191231,11.1009459 C34.7191231,11.4221835 34.5916635,11.7292397 34.3650687,11.9555241 C34.1390897,12.1811919 33.8330636,12.3082072 33.5134911,12.3082072" id="Fill-6" fill="#2AC6EA" mask="url(#mask-4)"></path>
            </g>
        </g>
    </g>
</svg>